<svg xmlns="http://www.w3.org/2000/svg" xmlns:xlink="http://www.w3.org/1999/xlink" width="1920" zoomAndPan="magnify" viewBox="0 0 1440 809.999993" height="1080" preserveAspectRatio="xMidYMid meet" version="1.0"><defs><g/></defs><g fill="#eb2424" fill-opacity="1"><g transform="translate(464.304917, 371.532981)"><g><path d="M 0.5625 0 L 3.71875 -32.640625 L 14.78125 -32.640625 L 17.890625 0 L 11.703125 0 L 11.25 -5.28125 L 7.296875 -5.28125 L 6.921875 0 Z M 7.796875 -10.484375 L 10.75 -10.484375 L 9.3125 -27.09375 L 9 -27.09375 Z M 7.796875 -10.484375 "/></g></g></g><g fill="#eb2424" fill-opacity="1"><g transform="translate(482.731152, 371.532981)"><g><path d="M 12.078125 0.296875 C 10.253906 0.296875 8.953125 -0.789062 8.171875 -2.96875 L 8.171875 0 L 1.328125 0 L 1.328125 -32.828125 L 8.171875 -32.828125 L 8.171875 -26.484375 C 9.234375 -27.578125 10.472656 -28.125 11.890625 -28.125 C 14.046875 -28.125 15.59375 -27.484375 16.53125 -26.203125 C 17.46875 -24.921875 17.9375 -23.078125 17.9375 -20.671875 L 17.9375 -7.265625 C 17.9375 -4.984375 17.453125 -3.148438 16.484375 -1.765625 C 15.523438 -0.390625 14.054688 0.296875 12.078125 0.296875 Z M 9.84375 -4.859375 C 10.300781 -4.859375 10.625 -5.003906 10.8125 -5.296875 C 11 -5.585938 11.109375 -5.953125 11.140625 -6.390625 C 11.179688 -6.835938 11.203125 -7.53125 11.203125 -8.46875 L 11.203125 -20.0625 C 11.203125 -21.050781 11.113281 -21.785156 10.9375 -22.265625 C 10.757812 -22.742188 10.378906 -22.984375 9.796875 -22.984375 C 9.171875 -22.984375 8.742188 -22.742188 8.515625 -22.265625 C 8.285156 -21.785156 8.171875 -21.078125 8.171875 -20.140625 L 8.171875 -8.46875 C 8.171875 -7.257812 8.269531 -6.351562 8.46875 -5.75 C 8.675781 -5.15625 9.132812 -4.859375 9.84375 -4.859375 Z M 9.84375 -4.859375 "/></g></g></g><g fill="#eb2424" fill-opacity="1"><g transform="translate(501.765262, 371.532981)"><g><path d="M 9.421875 0.296875 C 3.878906 0.296875 1.109375 -2.578125 1.109375 -8.328125 L 1.109375 -19.5 C 1.109375 -22.132812 1.847656 -24.226562 3.328125 -25.78125 C 4.804688 -27.34375 6.835938 -28.125 9.421875 -28.125 C 12.003906 -28.125 14.035156 -27.34375 15.515625 -25.78125 C 17.003906 -24.226562 17.75 -22.132812 17.75 -19.5 L 17.75 -8.328125 C 17.75 -2.578125 14.972656 0.296875 9.421875 0.296875 Z M 9.421875 -4.828125 C 9.953125 -4.828125 10.34375 -5.015625 10.59375 -5.390625 C 10.851562 -5.773438 10.984375 -6.296875 10.984375 -6.953125 L 10.984375 -20.5625 C 10.984375 -22.175781 10.460938 -22.984375 9.421875 -22.984375 C 8.378906 -22.984375 7.859375 -22.175781 7.859375 -20.5625 L 7.859375 -6.953125 C 7.859375 -6.296875 7.984375 -5.773438 8.234375 -5.390625 C 8.492188 -5.015625 8.890625 -4.828125 9.421875 -4.828125 Z M 9.421875 -4.828125 "/></g></g></g><g fill="#eb2424" fill-opacity="1"><g transform="translate(520.647406, 371.532981)"><g><path d="M 6.6875 0.296875 C 4.613281 0.296875 3.1875 -0.320312 2.40625 -1.5625 C 1.632812 -2.800781 1.25 -4.648438 1.25 -7.109375 L 1.25 -27.8125 L 7.9375 -27.8125 L 7.9375 -8.4375 C 7.9375 -8.257812 7.9375 -7.785156 7.9375 -7.015625 C 7.9375 -6.242188 8.054688 -5.695312 8.296875 -5.375 C 8.535156 -5.0625 8.910156 -4.90625 9.421875 -4.90625 C 10.109375 -4.90625 10.539062 -5.1875 10.71875 -5.75 C 10.894531 -6.320312 10.984375 -7.140625 10.984375 -8.203125 L 10.984375 -8.4375 L 11.015625 -27.8125 L 17.625 -27.8125 L 17.625 0 L 10.984375 0 L 10.984375 -2.96875 C 10.523438 -1.800781 9.988281 -0.960938 9.375 -0.453125 C 8.769531 0.046875 7.875 0.296875 6.6875 0.296875 Z M 6.6875 0.296875 "/></g></g></g><g fill="#eb2424" fill-opacity="1"><g transform="translate(539.605527, 371.532981)"><g><path d="M 7.0625 0.296875 C 5.320312 0.296875 4.117188 -0.0664062 3.453125 -0.796875 C 2.796875 -1.535156 2.46875 -2.710938 2.46875 -4.328125 L 2.46875 -21.703125 L 0.609375 -21.703125 L 0.609375 -26.75 L 2.46875 -26.75 L 2.46875 -32.640625 L 8.9375 -32.640625 L 8.9375 -26.75 L 10.828125 -26.75 L 10.828125 -21.703125 L 8.9375 -21.703125 L 8.9375 -6.078125 C 8.9375 -5.597656 8.972656 -5.242188 9.046875 -5.015625 C 9.117188 -4.785156 9.320312 -4.671875 9.65625 -4.671875 C 9.90625 -4.671875 10.144531 -4.679688 10.375 -4.703125 C 10.601562 -4.734375 10.753906 -4.75 10.828125 -4.75 L 10.828125 -0.1875 C 10.453125 -0.0820312 9.898438 0.0195312 9.171875 0.125 C 8.453125 0.238281 7.75 0.296875 7.0625 0.296875 Z M 7.0625 0.296875 "/></g></g></g><g fill="#eb2424" fill-opacity="1"><g transform="translate(551.193162, 371.532981)"><g/></g></g><g fill="#373131" fill-opacity="1"><g transform="translate(560.093975, 371.532981)"><g><path d="M 1.328125 -27.8125 L 7.828125 -27.8125 L 7.828125 -24.59375 C 8.128906 -25.78125 8.644531 -26.664062 9.375 -27.25 C 10.113281 -27.832031 11.15625 -28.125 12.5 -28.125 C 13.59375 -28.125 14.535156 -27.875 15.328125 -27.375 C 16.128906 -26.882812 16.695312 -26.207031 17.03125 -25.34375 C 17.582031 -26.3125 18.195312 -27.015625 18.875 -27.453125 C 19.5625 -27.898438 20.515625 -28.125 21.734375 -28.125 C 23.910156 -28.125 25.421875 -27.457031 26.265625 -26.125 C 27.117188 -24.789062 27.546875 -22.859375 27.546875 -20.328125 L 27.46875 0 L 20.78125 0 L 20.78125 -20.4375 C 20.78125 -22.238281 20.328125 -23.140625 19.421875 -23.140625 C 18.785156 -23.140625 18.328125 -22.828125 18.046875 -22.203125 C 17.765625 -21.585938 17.625 -20.847656 17.625 -19.984375 L 17.625 0 L 10.984375 0 L 10.984375 -20.4375 C 10.984375 -21.226562 10.898438 -21.863281 10.734375 -22.34375 C 10.566406 -22.820312 10.21875 -23.0625 9.6875 -23.0625 C 9 -23.0625 8.515625 -22.722656 8.234375 -22.046875 C 7.960938 -21.378906 7.828125 -20.578125 7.828125 -19.640625 L 7.828125 0 L 1.328125 0 Z M 1.328125 -27.8125 "/></g></g></g><g fill="#373131" fill-opacity="1"><g transform="translate(588.892092, 371.532981)"><g><path d="M 9.125 0.296875 C 6.257812 0.296875 4.207031 -0.484375 2.96875 -2.046875 C 1.726562 -3.617188 1.109375 -5.960938 1.109375 -9.078125 L 1.109375 -20.25 C 1.109375 -22.8125 1.84375 -24.765625 3.3125 -26.109375 C 4.78125 -27.453125 6.832031 -28.125 9.46875 -28.125 C 14.8125 -28.125 17.484375 -25.5 17.484375 -20.25 L 17.484375 -18.234375 C 17.484375 -16.210938 17.457031 -14.566406 17.40625 -13.296875 L 7.75 -13.296875 L 7.75 -7.90625 C 7.75 -6.9375 7.847656 -6.179688 8.046875 -5.640625 C 8.253906 -5.097656 8.6875 -4.828125 9.34375 -4.828125 C 9.851562 -4.828125 10.210938 -4.976562 10.421875 -5.28125 C 10.640625 -5.582031 10.769531 -5.929688 10.8125 -6.328125 C 10.851562 -6.722656 10.875 -7.300781 10.875 -8.0625 L 10.875 -10.75 L 17.484375 -10.75 L 17.484375 -9.15625 C 17.484375 -5.914062 16.851562 -3.53125 15.59375 -2 C 14.34375 -0.46875 12.1875 0.296875 9.125 0.296875 Z M 10.875 -16.609375 L 10.875 -20.171875 C 10.875 -22.179688 10.378906 -23.1875 9.390625 -23.1875 C 8.273438 -23.1875 7.71875 -22.179688 7.71875 -20.171875 L 7.71875 -16.609375 Z M 10.875 -16.609375 "/></g></g></g><g fill="#373131" fill-opacity="1"><g transform="translate(607.432309, 371.532981)"><g><path d="M 2.359375 -16.15625 C 4.640625 -16.15625 6.378906 -16.320312 7.578125 -16.65625 C 8.785156 -17 9.679688 -17.726562 10.265625 -18.84375 C 10.847656 -19.957031 11.140625 -21.679688 11.140625 -24.015625 C 11.140625 -24.953125 11.023438 -25.6875 10.796875 -26.21875 C 10.566406 -26.75 10.109375 -27.015625 9.421875 -27.015625 C 8.710938 -27.015625 8.242188 -26.707031 8.015625 -26.09375 C 7.785156 -25.488281 7.671875 -24.65625 7.671875 -23.59375 L 7.671875 -20.859375 L 0.875 -20.859375 L 0.875 -25.578125 C 0.875 -28.003906 1.644531 -29.835938 3.1875 -31.078125 C 4.738281 -32.328125 6.816406 -32.953125 9.421875 -32.953125 C 12.585938 -32.953125 14.832031 -32.109375 16.15625 -30.421875 C 17.488281 -28.734375 18.15625 -26.179688 18.15625 -22.765625 C 18.15625 -19.421875 17.335938 -16.722656 15.703125 -14.671875 C 14.078125 -12.617188 11.691406 -11.59375 8.546875 -11.59375 L 8.546875 -8.4375 L 2.359375 -8.4375 Z M 2.171875 0 L 2.171875 -5.546875 L 8.78125 -5.546875 L 8.78125 0 Z M 2.171875 0 "/></g></g></g><g fill="#eb2424" fill-opacity="1"><g transform="translate(517.88304, 411.782987)"><g><path d="M 0.515625 0 L 6.921875 -27.765625 L 2.84375 -27.765625 L 4.359375 -34.359375 L 19.40625 -34.359375 L 17.875 -27.765625 L 13.796875 -27.765625 L 7.40625 0 Z M 0.515625 0 "/></g></g></g><g fill="#eb2424" fill-opacity="1"><g transform="translate(533.721468, 411.782987)"><g><path d="M 3.6875 0.3125 C 1.5 0.3125 0.144531 -0.335938 -0.375 -1.640625 C -0.894531 -2.941406 -0.847656 -4.890625 -0.234375 -7.484375 L 4.765625 -29.28125 L 11.8125 -29.28125 L 7.125 -8.875 C 7.070312 -8.6875 6.953125 -8.1875 6.765625 -7.375 C 6.578125 -6.5625 6.566406 -5.988281 6.734375 -5.65625 C 6.910156 -5.320312 7.269531 -5.15625 7.8125 -5.15625 C 8.53125 -5.15625 9.054688 -5.453125 9.390625 -6.046875 C 9.722656 -6.648438 10.007812 -7.515625 10.25 -8.640625 L 10.328125 -8.875 L 15.046875 -29.28125 L 22 -29.28125 L 15.25 0 L 8.25 0 L 8.96875 -3.125 C 8.21875 -1.894531 7.460938 -1.015625 6.703125 -0.484375 C 5.941406 0.046875 4.9375 0.3125 3.6875 0.3125 Z M 3.6875 0.3125 "/></g></g></g><g fill="#eb2424" fill-opacity="1"><g transform="translate(553.679482, 411.782987)"><g><path d="M 4.765625 -29.28125 L 11.765625 -29.28125 L 11.046875 -26.046875 C 11.660156 -27.191406 12.472656 -28.078125 13.484375 -28.703125 C 14.492188 -29.328125 15.640625 -29.640625 16.921875 -29.640625 L 15.5625 -23.796875 C 14.582031 -23.796875 13.460938 -23.65625 12.203125 -23.375 C 10.953125 -23.09375 10.285156 -22.769531 10.203125 -22.40625 L 5 0 L -2 0 Z M 4.765625 -29.28125 "/></g></g></g><g fill="#eb2424" fill-opacity="1"><g transform="translate(567.438118, 411.782987)"><g><path d="M 4.8125 -29.28125 L 11.8125 -29.28125 L 10.921875 -25.5625 C 11.484375 -26.757812 12.210938 -27.726562 13.109375 -28.46875 C 14.003906 -29.21875 15.050781 -29.59375 16.25 -29.59375 C 18.21875 -29.59375 19.535156 -28.984375 20.203125 -27.765625 C 20.867188 -26.554688 20.953125 -24.832031 20.453125 -22.59375 L 15.25 0 L 8.359375 0 L 13.40625 -21.875 C 13.539062 -22.519531 13.535156 -23.066406 13.390625 -23.515625 C 13.242188 -23.972656 12.898438 -24.203125 12.359375 -24.203125 C 11.640625 -24.203125 11.09375 -23.875 10.71875 -23.21875 C 10.351562 -22.5625 10.035156 -21.6875 9.765625 -20.59375 L 5.046875 0 L -1.953125 0 Z M 4.8125 -29.28125 "/></g></g></g><g fill="#eb2424" fill-opacity="1"><g transform="translate(587.396132, 411.782987)"><g><path d="M 4.453125 -31.234375 L 5.5625 -36.125 L 12.5625 -36.125 L 11.453125 -31.234375 Z M -2.75 0 L 4 -29.28125 L 11 -29.28125 L 4.25 0 Z M -2.75 0 "/></g></g></g><g fill="#eb2424" fill-opacity="1"><g transform="translate(597.115164, 411.782987)"><g><path d="M 4.8125 -29.28125 L 11.8125 -29.28125 L 10.921875 -25.5625 C 11.484375 -26.757812 12.210938 -27.726562 13.109375 -28.46875 C 14.003906 -29.21875 15.050781 -29.59375 16.25 -29.59375 C 18.21875 -29.59375 19.535156 -28.984375 20.203125 -27.765625 C 20.867188 -26.554688 20.953125 -24.832031 20.453125 -22.59375 L 15.25 0 L 8.359375 0 L 13.40625 -21.875 C 13.539062 -22.519531 13.535156 -23.066406 13.390625 -23.515625 C 13.242188 -23.972656 12.898438 -24.203125 12.359375 -24.203125 C 11.640625 -24.203125 11.09375 -23.875 10.71875 -23.21875 C 10.351562 -22.5625 10.035156 -21.6875 9.765625 -20.59375 L 5.046875 0 L -1.953125 0 Z M 4.8125 -29.28125 "/></g></g></g><g fill="#eb2424" fill-opacity="1"><g transform="translate(617.073178, 411.782987)"><g><path d="M 5.40625 4.28125 C 3.320312 4.28125 1.726562 4.113281 0.625 3.78125 C -0.476562 3.445312 -1.5 2.8125 -2.4375 1.875 L 0.890625 -2.15625 C 2.378906 -1.144531 3.960938 -0.640625 5.640625 -0.640625 C 6.734375 -0.640625 7.640625 -0.984375 8.359375 -1.671875 C 9.085938 -2.367188 9.582031 -3.316406 9.84375 -4.515625 L 10.203125 -6.125 C 9.191406 -4.125 7.488281 -3.125 5.09375 -3.125 C 3.09375 -3.125 1.769531 -3.800781 1.125 -5.15625 C 0.488281 -6.519531 0.4375 -8.332031 0.96875 -10.59375 L 3.53125 -21.59375 C 4.113281 -24.1875 5 -26.164062 6.1875 -27.53125 C 7.375 -28.90625 9.046875 -29.59375 11.203125 -29.59375 C 12.460938 -29.59375 13.382812 -29.28125 13.96875 -28.65625 C 14.550781 -28.03125 14.832031 -27.144531 14.8125 -26 L 15.5625 -29.28125 L 22.734375 -29.28125 L 17.125 -4.953125 C 16.351562 -1.679688 15.039062 0.671875 13.1875 2.109375 C 11.332031 3.554688 8.738281 4.28125 5.40625 4.28125 Z M 9.09375 -8.40625 C 10.1875 -8.40625 10.957031 -9.390625 11.40625 -11.359375 L 13.84375 -21.796875 C 13.976562 -22.390625 13.945312 -22.953125 13.75 -23.484375 C 13.550781 -24.015625 13.210938 -24.28125 12.734375 -24.28125 C 12.117188 -24.28125 11.648438 -24.054688 11.328125 -23.609375 C 11.003906 -23.171875 10.765625 -22.566406 10.609375 -21.796875 L 8.171875 -11.359375 C 7.984375 -10.484375 7.925781 -9.769531 8 -9.21875 C 8.082031 -8.675781 8.445312 -8.40625 9.09375 -8.40625 Z M 9.09375 -8.40625 "/></g></g></g><g fill="#eb2424" fill-opacity="1"><g transform="translate(637.231178, 411.782987)"><g/></g></g><g fill="#eb2424" fill-opacity="1"><g transform="translate(646.590248, 411.782987)"><g><path d="M -2.71875 0 L 5.203125 -34.359375 L 11.84375 -34.359375 L 3.921875 0 Z M -2.71875 0 "/></g></g></g><g fill="#eb2424" fill-opacity="1"><g transform="translate(655.669349, 411.782987)"><g><path d="M 3.171875 0.3125 C 1.460938 0.3125 0.269531 -0.09375 -0.40625 -0.90625 C -1.09375 -1.71875 -1.414062 -2.796875 -1.375 -4.140625 C -1.332031 -5.484375 -1.070312 -7.207031 -0.59375 -9.3125 L 2.53125 -22.515625 C 3.007812 -24.597656 3.925781 -26.296875 5.28125 -27.609375 C 6.644531 -28.929688 8.285156 -29.59375 10.203125 -29.59375 C 12.097656 -29.59375 13.363281 -28.96875 14 -27.71875 L 15.609375 -34.5625 L 22.609375 -34.5625 L 14.609375 0 L 7.609375 0 L 8.328125 -3.125 C 7.660156 -1.976562 6.921875 -1.117188 6.109375 -0.546875 C 5.296875 0.0234375 4.316406 0.3125 3.171875 0.3125 Z M 7.125 -5.15625 C 7.820312 -5.15625 8.351562 -5.492188 8.71875 -6.171875 C 9.09375 -6.859375 9.414062 -7.773438 9.6875 -8.921875 L 9.96875 -10.15625 L 12.484375 -21.15625 C 12.703125 -22.007812 12.753906 -22.726562 12.640625 -23.3125 C 12.535156 -23.90625 12.175781 -24.203125 11.5625 -24.203125 C 10.875 -24.203125 10.347656 -23.925781 9.984375 -23.375 C 9.628906 -22.832031 9.34375 -22.09375 9.125 -21.15625 L 6.28125 -8.84375 C 5.726562 -6.382812 6.007812 -5.15625 7.125 -5.15625 Z M 7.125 -5.15625 "/></g></g></g><g fill="#eb2424" fill-opacity="1"><g transform="translate(675.587366, 411.782987)"><g><path d="M 6.203125 0.3125 C 3.191406 0.3125 1.21875 -0.507812 0.28125 -2.15625 C -0.644531 -3.8125 -0.722656 -6.28125 0.046875 -9.5625 L 2.765625 -21.3125 C 3.378906 -24.007812 4.617188 -26.0625 6.484375 -27.46875 C 8.347656 -28.882812 10.671875 -29.59375 13.453125 -29.59375 C 19.078125 -29.59375 21.257812 -26.832031 20 -21.3125 L 19.484375 -19.203125 C 19.003906 -17.066406 18.578125 -15.332031 18.203125 -14 L 8.046875 -14 L 6.765625 -8.3125 C 6.523438 -7.300781 6.441406 -6.507812 6.515625 -5.9375 C 6.597656 -5.363281 6.988281 -5.078125 7.6875 -5.078125 C 8.21875 -5.078125 8.628906 -5.238281 8.921875 -5.5625 C 9.210938 -5.882812 9.429688 -6.25 9.578125 -6.65625 C 9.734375 -7.070312 9.890625 -7.679688 10.046875 -8.484375 L 10.734375 -11.3125 L 17.6875 -11.3125 L 17.28125 -9.640625 C 16.507812 -6.222656 15.273438 -3.707031 13.578125 -2.09375 C 11.890625 -0.488281 9.429688 0.3125 6.203125 0.3125 Z M 12.125 -17.484375 L 13 -21.234375 C 13.488281 -23.347656 13.210938 -24.40625 12.171875 -24.40625 C 10.992188 -24.40625 10.164062 -23.347656 9.6875 -21.234375 L 8.8125 -17.484375 Z M 12.125 -17.484375 "/></g></g></g><g fill="#eb2424" fill-opacity="1"><g transform="translate(695.105424, 411.782987)"><g><path d="M 3.328125 0.3125 C 1.054688 0.3125 -0.320312 -0.4375 -0.8125 -1.9375 C -1.300781 -3.445312 -1.226562 -5.601562 -0.59375 -8.40625 C -0.0625 -10.695312 0.640625 -12.453125 1.515625 -13.671875 C 2.398438 -14.898438 3.441406 -15.800781 4.640625 -16.375 C 5.847656 -16.945312 7.625 -17.582031 9.96875 -18.28125 L 12.046875 -18.921875 L 12.046875 -19 L 12.734375 -21.921875 C 12.910156 -22.691406 12.890625 -23.28125 12.671875 -23.6875 C 12.460938 -24.101562 12.148438 -24.3125 11.734375 -24.3125 C 11.359375 -24.3125 10.988281 -24.140625 10.625 -23.796875 C 10.269531 -23.453125 10.023438 -22.988281 9.890625 -22.40625 L 9.484375 -20.640625 L 2.6875 -20.640625 L 2.890625 -21.59375 C 3.554688 -24.476562 4.703125 -26.53125 6.328125 -27.75 C 7.953125 -28.976562 10.285156 -29.59375 13.328125 -29.59375 C 15.753906 -29.59375 17.578125 -28.957031 18.796875 -27.6875 C 20.023438 -26.425781 20.375 -24.632812 19.84375 -22.3125 L 14.734375 0 L 7.765625 0 L 8.5625 -3.484375 C 7.925781 -2.285156 7.15625 -1.351562 6.25 -0.6875 C 5.34375 -0.0195312 4.367188 0.3125 3.328125 0.3125 Z M 7.328125 -5.125 C 7.859375 -5.125 8.289062 -5.34375 8.625 -5.78125 C 8.957031 -6.21875 9.191406 -6.757812 9.328125 -7.40625 L 11.203125 -15.5625 C 10.085938 -15.15625 9.207031 -14.644531 8.5625 -14.03125 C 7.925781 -13.425781 7.488281 -12.578125 7.25 -11.484375 L 6.359375 -7.71875 C 5.960938 -5.988281 6.285156 -5.125 7.328125 -5.125 Z M 7.328125 -5.125 "/></g></g></g><g fill="#eb2424" fill-opacity="1"><g transform="translate(714.423496, 411.782987)"><g><path d="M 6.046875 0.3125 C 0.253906 0.3125 -1.972656 -2.617188 -0.640625 -8.484375 L -0.03125 -10.796875 L 6.96875 -10.796875 L 6.203125 -7.359375 C 6.046875 -6.660156 6.0625 -6.128906 6.25 -5.765625 C 6.4375 -5.410156 6.835938 -5.234375 7.453125 -5.234375 C 8.378906 -5.234375 9.015625 -5.992188 9.359375 -7.515625 C 9.628906 -8.640625 9.617188 -9.519531 9.328125 -10.15625 C 9.035156 -10.800781 8.488281 -11.484375 7.6875 -12.203125 L 4.640625 -15.078125 C 3.578125 -16.066406 2.882812 -17.085938 2.5625 -18.140625 C 2.25 -19.191406 2.316406 -20.675781 2.765625 -22.59375 C 3.109375 -24.09375 3.789062 -25.367188 4.8125 -26.421875 C 5.84375 -27.472656 7.070312 -28.265625 8.5 -28.796875 C 9.925781 -29.328125 11.441406 -29.59375 13.046875 -29.59375 C 18.722656 -29.59375 20.910156 -26.769531 19.609375 -21.125 L 19.484375 -20.5625 L 12.25 -20.5625 L 12.53125 -21.6875 C 12.6875 -22.375 12.703125 -22.960938 12.578125 -23.453125 C 12.460938 -23.953125 12.140625 -24.203125 11.609375 -24.203125 C 11.128906 -24.203125 10.726562 -24.0625 10.40625 -23.78125 C 10.082031 -23.5 9.867188 -23.117188 9.765625 -22.640625 C 9.523438 -21.578125 9.753906 -20.75 10.453125 -20.15625 L 14.046875 -17 C 15.328125 -15.851562 16.21875 -14.601562 16.71875 -13.25 C 17.226562 -11.90625 17.257812 -10.207031 16.8125 -8.15625 C 16.164062 -5.4375 14.898438 -3.34375 13.015625 -1.875 C 11.140625 -0.414062 8.816406 0.3125 6.046875 0.3125 Z M 6.046875 0.3125 "/></g></g></g><g fill="#eb2424" fill-opacity="1"><g transform="translate(733.421604, 411.782987)"><g/></g></g><g fill="#eb2424" fill-opacity="1"><g transform="translate(742.780673, 411.782987)"><g><path d="M 4.453125 -31.234375 L 5.5625 -36.125 L 12.5625 -36.125 L 11.453125 -31.234375 Z M -2.75 0 L 4 -29.28125 L 11 -29.28125 L 4.25 0 Z M -2.75 0 "/></g></g></g><g fill="#eb2424" fill-opacity="1"><g transform="translate(752.499705, 411.782987)"><g><path d="M 4.8125 -29.28125 L 11.8125 -29.28125 L 10.921875 -25.5625 C 11.484375 -26.757812 12.210938 -27.726562 13.109375 -28.46875 C 14.003906 -29.21875 15.050781 -29.59375 16.25 -29.59375 C 18.21875 -29.59375 19.535156 -28.984375 20.203125 -27.765625 C 20.867188 -26.554688 20.953125 -24.832031 20.453125 -22.59375 L 15.25 0 L 8.359375 0 L 13.40625 -21.875 C 13.539062 -22.519531 13.535156 -23.066406 13.390625 -23.515625 C 13.242188 -23.972656 12.898438 -24.203125 12.359375 -24.203125 C 11.640625 -24.203125 11.09375 -23.875 10.71875 -23.21875 C 10.351562 -22.5625 10.035156 -21.6875 9.765625 -20.59375 L 5.046875 0 L -1.953125 0 Z M 4.8125 -29.28125 "/></g></g></g><g fill="#eb2424" fill-opacity="1"><g transform="translate(772.457719, 411.782987)"><g><path d="M 3.484375 0.3125 C 1.648438 0.3125 0.472656 -0.0703125 -0.046875 -0.84375 C -0.566406 -1.613281 -0.628906 -2.851562 -0.234375 -4.5625 L 4 -22.84375 L 2.046875 -22.84375 L 3.25 -28.15625 L 5.203125 -28.15625 L 6.640625 -34.359375 L 13.453125 -34.359375 L 12 -28.15625 L 14 -28.15625 L 12.8125 -22.84375 L 10.8125 -22.84375 L 7 -6.40625 C 6.875 -5.894531 6.820312 -5.519531 6.84375 -5.28125 C 6.875 -5.039062 7.0625 -4.921875 7.40625 -4.921875 C 7.675781 -4.921875 7.9375 -4.929688 8.1875 -4.953125 C 8.4375 -4.984375 8.601562 -5 8.6875 -5 L 7.5625 -0.203125 C 7.132812 -0.0976562 6.523438 0.0078125 5.734375 0.125 C 4.953125 0.25 4.203125 0.3125 3.484375 0.3125 Z M 3.484375 0.3125 "/></g></g></g><g fill="#eb2424" fill-opacity="1"><g transform="translate(784.656502, 411.782987)"><g><path d="M 6.53125 0.3125 C 0.6875 0.3125 -1.539062 -2.710938 -0.15625 -8.765625 L 2.5625 -20.515625 C 3.207031 -23.296875 4.492188 -25.503906 6.421875 -27.140625 C 8.359375 -28.773438 10.6875 -29.59375 13.40625 -29.59375 C 16.125 -29.59375 18.078125 -28.773438 19.265625 -27.140625 C 20.453125 -25.503906 20.726562 -23.296875 20.09375 -20.515625 L 17.359375 -8.765625 C 15.972656 -2.710938 12.363281 0.3125 6.53125 0.3125 Z M 7.765625 -5.078125 C 8.328125 -5.078125 8.785156 -5.273438 9.140625 -5.671875 C 9.503906 -6.078125 9.765625 -6.625 9.921875 -7.3125 L 13.203125 -21.640625 C 13.609375 -23.347656 13.265625 -24.203125 12.171875 -24.203125 C 11.078125 -24.203125 10.328125 -23.347656 9.921875 -21.640625 L 6.640625 -7.3125 C 6.484375 -6.625 6.488281 -6.078125 6.65625 -5.671875 C 6.832031 -5.273438 7.203125 -5.078125 7.765625 -5.078125 Z M 7.765625 -5.078125 "/></g></g></g><g fill="#eb2424" fill-opacity="1"><g transform="translate(804.534522, 411.782987)"><g/></g></g><g fill="#eb2424" fill-opacity="1"><g transform="translate(813.893592, 411.782987)"><g><path d="M 5.53125 -34.359375 L 16.09375 -34.359375 C 17.769531 -34.359375 18.976562 -33.976562 19.71875 -33.21875 C 20.46875 -32.457031 20.84375 -31.390625 20.84375 -30.015625 C 20.84375 -28.640625 20.601562 -26.890625 20.125 -24.765625 C 19.675781 -22.816406 19.070312 -21.296875 18.3125 -20.203125 C 17.550781 -19.109375 16.488281 -18.347656 15.125 -17.921875 C 16.113281 -17.703125 16.75 -17.179688 17.03125 -16.359375 C 17.3125 -15.535156 17.289062 -14.414062 16.96875 -13 L 13.890625 0 L 7.171875 0 L 10.25 -13.4375 C 10.488281 -14.394531 10.445312 -15.007812 10.125 -15.28125 C 9.800781 -15.550781 9.148438 -15.6875 8.171875 -15.6875 L 4.5625 0 L -2.390625 0 Z M 11.25 -21.640625 C 12.207031 -21.640625 12.925781 -22.679688 13.40625 -24.765625 C 13.625 -25.671875 13.738281 -26.347656 13.75 -26.796875 C 13.757812 -27.253906 13.675781 -27.566406 13.5 -27.734375 C 13.332031 -27.910156 13.046875 -28 12.640625 -28 L 11.046875 -28 L 9.609375 -21.640625 Z M 11.25 -21.640625 "/></g></g></g><g fill="#eb2424" fill-opacity="1"><g transform="translate(832.971692, 411.782987)"><g><path d="M 6.203125 0.3125 C 3.191406 0.3125 1.21875 -0.507812 0.28125 -2.15625 C -0.644531 -3.8125 -0.722656 -6.28125 0.046875 -9.5625 L 2.765625 -21.3125 C 3.378906 -24.007812 4.617188 -26.0625 6.484375 -27.46875 C 8.347656 -28.882812 10.671875 -29.59375 13.453125 -29.59375 C 19.078125 -29.59375 21.257812 -26.832031 20 -21.3125 L 19.484375 -19.203125 C 19.003906 -17.066406 18.578125 -15.332031 18.203125 -14 L 8.046875 -14 L 6.765625 -8.3125 C 6.523438 -7.300781 6.441406 -6.507812 6.515625 -5.9375 C 6.597656 -5.363281 6.988281 -5.078125 7.6875 -5.078125 C 8.21875 -5.078125 8.628906 -5.238281 8.921875 -5.5625 C 9.210938 -5.882812 9.429688 -6.25 9.578125 -6.65625 C 9.734375 -7.070312 9.890625 -7.679688 10.046875 -8.484375 L 10.734375 -11.3125 L 17.6875 -11.3125 L 17.28125 -9.640625 C 16.507812 -6.222656 15.273438 -3.707031 13.578125 -2.09375 C 11.890625 -0.488281 9.429688 0.3125 6.203125 0.3125 Z M 12.125 -17.484375 L 13 -21.234375 C 13.488281 -23.347656 13.210938 -24.40625 12.171875 -24.40625 C 10.992188 -24.40625 10.164062 -23.347656 9.6875 -21.234375 L 8.8125 -17.484375 Z M 12.125 -17.484375 "/></g></g></g><g fill="#eb2424" fill-opacity="1"><g transform="translate(852.48975, 411.782987)"><g><path d="M 3.328125 0.3125 C 1.054688 0.3125 -0.320312 -0.4375 -0.8125 -1.9375 C -1.300781 -3.445312 -1.226562 -5.601562 -0.59375 -8.40625 C -0.0625 -10.695312 0.640625 -12.453125 1.515625 -13.671875 C 2.398438 -14.898438 3.441406 -15.800781 4.640625 -16.375 C 5.847656 -16.945312 7.625 -17.582031 9.96875 -18.28125 L 12.046875 -18.921875 L 12.046875 -19 L 12.734375 -21.921875 C 12.910156 -22.691406 12.890625 -23.28125 12.671875 -23.6875 C 12.460938 -24.101562 12.148438 -24.3125 11.734375 -24.3125 C 11.359375 -24.3125 10.988281 -24.140625 10.625 -23.796875 C 10.269531 -23.453125 10.023438 -22.988281 9.890625 -22.40625 L 9.484375 -20.640625 L 2.6875 -20.640625 L 2.890625 -21.59375 C 3.554688 -24.476562 4.703125 -26.53125 6.328125 -27.75 C 7.953125 -28.976562 10.285156 -29.59375 13.328125 -29.59375 C 15.753906 -29.59375 17.578125 -28.957031 18.796875 -27.6875 C 20.023438 -26.425781 20.375 -24.632812 19.84375 -22.3125 L 14.734375 0 L 7.765625 0 L 8.5625 -3.484375 C 7.925781 -2.285156 7.15625 -1.351562 6.25 -0.6875 C 5.34375 -0.0195312 4.367188 0.3125 3.328125 0.3125 Z M 7.328125 -5.125 C 7.859375 -5.125 8.289062 -5.34375 8.625 -5.78125 C 8.957031 -6.21875 9.191406 -6.757812 9.328125 -7.40625 L 11.203125 -15.5625 C 10.085938 -15.15625 9.207031 -14.644531 8.5625 -14.03125 C 7.925781 -13.425781 7.488281 -12.578125 7.25 -11.484375 L 6.359375 -7.71875 C 5.960938 -5.988281 6.285156 -5.125 7.328125 -5.125 Z M 7.328125 -5.125 "/></g></g></g><g fill="#eb2424" fill-opacity="1"><g transform="translate(871.807833, 411.782987)"><g><path d="M -2.546875 0 L 5.453125 -34.5625 L 12.5625 -34.5625 L 4.5625 0 Z M -2.546875 0 "/></g></g></g><g fill="#eb2424" fill-opacity="1"><g transform="translate(881.726862, 411.782987)"><g><path d="M 4.453125 -31.234375 L 5.5625 -36.125 L 12.5625 -36.125 L 11.453125 -31.234375 Z M -2.75 0 L 4 -29.28125 L 11 -29.28125 L 4.25 0 Z M -2.75 0 "/></g></g></g><g fill="#eb2424" fill-opacity="1"><g transform="translate(891.445894, 411.782987)"><g><path d="M 3.484375 0.3125 C 1.648438 0.3125 0.472656 -0.0703125 -0.046875 -0.84375 C -0.566406 -1.613281 -0.628906 -2.851562 -0.234375 -4.5625 L 4 -22.84375 L 2.046875 -22.84375 L 3.25 -28.15625 L 5.203125 -28.15625 L 6.640625 -34.359375 L 13.453125 -34.359375 L 12 -28.15625 L 14 -28.15625 L 12.8125 -22.84375 L 10.8125 -22.84375 L 7 -6.40625 C 6.875 -5.894531 6.820312 -5.519531 6.84375 -5.28125 C 6.875 -5.039062 7.0625 -4.921875 7.40625 -4.921875 C 7.675781 -4.921875 7.9375 -4.929688 8.1875 -4.953125 C 8.4375 -4.984375 8.601562 -5 8.6875 -5 L 7.5625 -0.203125 C 7.132812 -0.0976562 6.523438 0.0078125 5.734375 0.125 C 4.953125 0.25 4.203125 0.3125 3.484375 0.3125 Z M 3.484375 0.3125 "/></g></g></g><g fill="#eb2424" fill-opacity="1"><g transform="translate(903.644677, 411.782987)"><g><path d="M -2.03125 0.4375 L 1.328125 0.4375 C 1.804688 0.4375 2.097656 0.238281 2.203125 -0.15625 C 2.234375 -0.34375 2.25 -0.488281 2.25 -0.59375 L 4.328125 -29.28125 L 11 -29.28125 L 9 -15 L 7.96875 -7.71875 L 10.40625 -15 L 15.28125 -29.28125 L 22 -29.28125 L 9.453125 1.515625 C 8.992188 2.660156 8.410156 3.503906 7.703125 4.046875 C 6.992188 4.597656 6.03125 4.875 4.8125 4.875 L -3.078125 4.875 Z M -2.03125 0.4375 "/></g></g></g></svg>